<?xml version="1.0" encoding="UTF-8" standalone="no"?>
<!-- Created with Inkscape (http://www.inkscape.org/) -->

<svg
   xmlns:dc="http://purl.org/dc/elements/1.1/"
   xmlns:cc="http://creativecommons.org/ns#"
   xmlns:rdf="http://www.w3.org/1999/02/22-rdf-syntax-ns#"
   xmlns:svg="http://www.w3.org/2000/svg"
   xmlns="http://www.w3.org/2000/svg"
   xmlns:sodipodi="http://sodipodi.sourceforge.net/DTD/sodipodi-0.dtd"
   xmlns:inkscape="http://www.inkscape.org/namespaces/inkscape"
   width="33.866665mm"
   height="30.961359mm"
   viewBox="0 0 33.866665 30.961359"
   version="1.1"
   id="svg8"
   inkscape:version="0.92.4 (5da689c313, 2019-01-14)"
   sodipodi:docname="heart.svg">
  <title
     id="title5261">Heart Ships</title>
  <defs
     id="defs2" />
  <sodipodi:namedview
     id="base"
     pagecolor="#ffffff"
     bordercolor="#666666"
     borderopacity="1.0"
     inkscape:pageopacity="0.0"
     inkscape:pageshadow="2"
     inkscape:zoom="0.49497475"
     inkscape:cx="170.69586"
     inkscape:cy="-265.18987"
     inkscape:document-units="mm"
     inkscape:current-layer="layer1"
     showgrid="false"
     inkscape:window-width="1920"
     inkscape:window-height="1017"
     inkscape:window-x="-8"
     inkscape:window-y="-8"
     inkscape:window-maximized="1" />
  <metadata
     id="metadata5">
    <rdf:RDF>
      <cc:Work
         rdf:about="">
        <dc:format>image/svg+xml</dc:format>
        <dc:type
           rdf:resource="http://purl.org/dc/dcmitype/StillImage" />
        <dc:title>Heart Ships</dc:title>
      </cc:Work>
    </rdf:RDF>
  </metadata>
  <g
     inkscape:label="Layer 1"
     inkscape:groupmode="layer"
     id="layer1"
     transform="translate(-92.490861,-40.200337)">
    <path
       style="opacity:1;fill:#ff8080;fill-opacity:1;stroke:none;stroke-width:0.09272603;stroke-miterlimit:4;stroke-dasharray:none;stroke-dashoffset:0;stroke-opacity:1"
       d="m 95.232582,43.273215 a 9.9193117,9.9193117 0 0 0 -2.40376,4.279205 9.9193117,9.9193117 0 0 0 2.567421,9.581287 l 14.027987,14.027989 14.02799,-14.027988 a 9.9193117,9.9193117 0 0 0 2.56729,-9.581415 9.9193117,9.9193117 0 0 0 -7.01399,-7.013994 9.9193117,9.9193117 0 0 0 -9.58129,2.567421 9.9193117,9.9193117 0 0 0 -9.581414,-2.567293 9.9193117,9.9193117 0 0 0 -4.610234,2.734788 z"
       id="rect5071"
       inkscape:connector-curvature="0" />
    <g
       id="g5205"
       transform="translate(178.52762,26.726953)">
      <path
         inkscape:connector-curvature="0"
         id="rect5071-9"
         d="m 70.944987,151.6911 a 28.348215,28.348215 0 0 0 -6.869662,12.22946 28.348215,28.348215 0 0 0 7.337384,27.38218 l 40.090321,40.09032 40.09032,-40.09032 a 28.348215,28.348215 0 0 0 7.33702,-27.38255 28.348215,28.348215 0 0 0 -20.04516,-20.04516 28.348215,28.348215 0 0 0 -27.38218,7.33738 28.348215,28.348215 0 0 0 -27.382542,-7.33701 28.348215,28.348215 0 0 0 -13.175501,7.8157 z"
         style="opacity:1;fill:#ff8080;fill-opacity:1;stroke:none;stroke-width:0.26499999;stroke-miterlimit:4;stroke-dasharray:none;stroke-dashoffset:0;stroke-opacity:1" />
      <path
         inkscape:connector-curvature="0"
         id="rect5071-9-6"
         d="m 91.224007,163.00475 a 14.174107,14.174107 0 0 0 -3.434831,6.11473 14.174107,14.174107 0 0 0 3.668692,13.69109 l 20.045162,20.04516 20.04516,-20.04516 a 14.174107,14.174107 0 0 0 3.66851,-13.69128 14.174107,14.174107 0 0 0 -10.02258,-10.02258 14.174107,14.174107 0 0 0 -13.69109,3.66869 14.174107,14.174107 0 0 0 -13.691273,-3.6685 14.174107,14.174107 0 0 0 -6.58775,3.90785 z"
         style="opacity:1;fill:#bdb3b3;fill-opacity:1;stroke:none;stroke-width:0.13249999;stroke-miterlimit:4;stroke-dasharray:none;stroke-dashoffset:0;stroke-opacity:1" />
      <path
         inkscape:connector-curvature="0"
         id="rect5071-9-6-0"
         d="m 91.224011,213.16144 a 14.174107,6.4845798 0 0 0 -3.43483,2.79746 14.174107,6.4845798 0 0 0 3.66869,6.2636 l 20.045159,9.17056 20.04517,-9.17056 a 14.174107,6.4845798 0 0 0 3.66851,-6.26368 14.174107,6.4845798 0 0 0 -10.02258,-4.58528 14.174107,6.4845798 0 0 0 -13.6911,1.6784 14.174107,6.4845798 0 0 0 -13.691269,-1.67832 14.174107,6.4845798 0 0 0 -6.58775,1.78782 z"
         style="opacity:1;fill:#bdb3b3;fill-opacity:1;stroke:none;stroke-width:0.08962082;stroke-miterlimit:4;stroke-dasharray:none;stroke-dashoffset:0;stroke-opacity:1" />
      <path
         inkscape:connector-curvature="0"
         id="rect5071-9-6-02"
         d="m 129.9948,151.58188 a 14.174107,7.6955517 0 0 0 3.43485,-3.31987 14.174107,7.6955517 0 0 0 -3.66869,-7.43336 L 109.7158,129.94551 89.670645,140.82864 a 14.174107,7.6955517 0 0 0 -3.668516,7.43346 14.174107,7.6955517 0 0 0 10.022593,5.4416 14.174107,7.6955517 0 0 0 13.691078,-1.99186 14.174107,7.6955517 0 0 0 13.69127,1.99175 14.174107,7.6955517 0 0 0 6.58774,-2.1217 z"
         style="opacity:1;fill:#bdb3b3;fill-opacity:1;stroke:none;stroke-width:0.09763103;stroke-miterlimit:4;stroke-dasharray:none;stroke-dashoffset:0;stroke-opacity:1" />
      <path
         style="opacity:1;fill:#8a8080;fill-opacity:1;stroke:none;stroke-width:0.11924999;stroke-miterlimit:4;stroke-dasharray:none;stroke-dashoffset:0;stroke-opacity:1"
         d="m 93.251904,164.77775 a 12.756696,12.756696 0 0 0 -3.091348,5.50326 12.756696,12.756696 0 0 0 3.301823,12.32198 l 18.040641,18.04064 18.04065,-18.04064 a 12.756696,12.756696 0 0 0 3.30166,-12.32215 12.756696,12.756696 0 0 0 -9.02032,-9.02033 12.756696,12.756696 0 0 0 -12.32199,3.30183 12.756696,12.756696 0 0 0 -12.322141,-3.30165 12.756696,12.756696 0 0 0 -5.928975,3.51706 z"
         id="path5163"
         inkscape:connector-curvature="0" />
      <path
         inkscape:connector-curvature="0"
         id="path5165"
         d="m 95.077011,166.37345 a 11.481026,11.481026 0 0 0 -2.782213,4.95293 11.481026,11.481026 0 0 0 2.971641,11.08979 l 16.236581,16.23657 16.23658,-16.23657 a 11.481026,11.481026 0 0 0 2.97149,-11.08994 11.481026,11.481026 0 0 0 -8.11828,-8.1183 11.481026,11.481026 0 0 0 -11.08979,2.97165 11.481026,11.481026 0 0 0 -11.08993,-2.97148 11.481026,11.481026 0 0 0 -5.336079,3.16535 z"
         style="opacity:1;fill:#d6cccc;fill-opacity:1;stroke:none;stroke-width:0.107325;stroke-miterlimit:4;stroke-dasharray:none;stroke-dashoffset:0;stroke-opacity:1" />
      <path
         style="opacity:1;vector-effect:none;fill:#8a8080;fill-opacity:1;stroke:none;stroke-width:0.0877594;stroke-linecap:butt;stroke-linejoin:miter;stroke-miterlimit:4;stroke-dasharray:none;stroke-dashoffset:0;stroke-opacity:1"
         d="m 99.299779,213.97258 a 8.5295014,5.8361218 0 0 0 -2.066966,2.51771 8.5295014,5.8361218 0 0 0 2.207695,5.63724 l 12.062502,8.25351 12.06251,-8.25351 a 8.5295014,5.8361218 0 0 0 2.20759,-5.63731 8.5295014,5.8361218 0 0 0 -6.03125,-4.12675 8.5295014,5.8361218 0 0 0 -8.23885,1.51056 8.5295014,5.8361218 0 0 0 -8.23894,-1.51049 8.5295014,5.8361218 0 0 0 -3.964291,1.60904 z"
         id="path5169"
         inkscape:connector-curvature="0" />
      <path
         style="opacity:1;vector-effect:none;fill:#8a8080;fill-opacity:1;stroke:none;stroke-width:0.08678295;stroke-linecap:butt;stroke-linejoin:miter;stroke-miterlimit:4;stroke-dasharray:none;stroke-dashoffset:0;stroke-opacity:1"
         d="m 128.70242,145.65411 a 12.756696,4.5284477 0 0 0 3.09134,-1.95359 12.756696,4.5284477 0 0 0 -3.30182,-4.37416 l -18.04064,-6.40417 -18.040659,6.40417 a 12.756696,4.5284477 0 0 0 -3.301656,4.37423 12.756696,4.5284477 0 0 0 9.020316,3.20209 12.756696,4.5284477 0 0 0 12.321999,-1.17209 12.756696,4.5284477 0 0 0 12.32213,1.17205 12.756696,4.5284477 0 0 0 5.92899,-1.24853 z"
         id="path5190"
         inkscape:connector-curvature="0" />
    </g>
    <g
       transform="translate(292.18449,20.847023)"
       id="g5223">
      <path
         style="opacity:1;fill:#8080ff;fill-opacity:1;stroke:none;stroke-width:0.26499999;stroke-miterlimit:4;stroke-dasharray:none;stroke-dashoffset:0;stroke-opacity:1"
         d="m 70.944987,151.6911 a 28.348215,28.348215 0 0 0 -6.869662,12.22946 28.348215,28.348215 0 0 0 7.337384,27.38218 l 40.090321,40.09032 40.09032,-40.09032 a 28.348215,28.348215 0 0 0 7.33702,-27.38255 28.348215,28.348215 0 0 0 -20.04516,-20.04516 28.348215,28.348215 0 0 0 -27.38218,7.33738 28.348215,28.348215 0 0 0 -27.382542,-7.33701 28.348215,28.348215 0 0 0 -13.175501,7.8157 z"
         id="path5207"
         inkscape:connector-curvature="0" />
      <path
         style="opacity:1;fill:#b3b3bd;fill-opacity:1;stroke:none;stroke-width:0.13249999;stroke-miterlimit:4;stroke-dasharray:none;stroke-dashoffset:0;stroke-opacity:1"
         d="m 91.224007,163.00475 a 14.174107,14.174107 0 0 0 -3.434831,6.11473 14.174107,14.174107 0 0 0 3.668692,13.69109 l 20.045162,20.04516 20.04516,-20.04516 a 14.174107,14.174107 0 0 0 3.66851,-13.69128 14.174107,14.174107 0 0 0 -10.02258,-10.02258 14.174107,14.174107 0 0 0 -13.69109,3.66869 14.174107,14.174107 0 0 0 -13.691273,-3.6685 14.174107,14.174107 0 0 0 -6.58775,3.90785 z"
         id="path5209"
         inkscape:connector-curvature="0" />
      <path
         style="opacity:1;fill:#b3b3bd;fill-opacity:1;stroke:none;stroke-width:0.08962082;stroke-miterlimit:4;stroke-dasharray:none;stroke-dashoffset:0;stroke-opacity:1"
         d="m 91.224011,213.16144 a 14.174107,6.4845798 0 0 0 -3.43483,2.79746 14.174107,6.4845798 0 0 0 3.66869,6.2636 l 20.045159,9.17056 20.04517,-9.17056 a 14.174107,6.4845798 0 0 0 3.66851,-6.26368 14.174107,6.4845798 0 0 0 -10.02258,-4.58528 14.174107,6.4845798 0 0 0 -13.6911,1.6784 14.174107,6.4845798 0 0 0 -13.691269,-1.67832 14.174107,6.4845798 0 0 0 -6.58775,1.78782 z"
         id="path5211"
         inkscape:connector-curvature="0" />
      <path
         style="opacity:1;fill:#b3b3bd;fill-opacity:1;stroke:none;stroke-width:0.09763103;stroke-miterlimit:4;stroke-dasharray:none;stroke-dashoffset:0;stroke-opacity:1"
         d="m 129.9948,151.58188 a 14.174107,7.6955517 0 0 0 3.43485,-3.31987 14.174107,7.6955517 0 0 0 -3.66869,-7.43336 L 109.7158,129.94551 89.670645,140.82864 a 14.174107,7.6955517 0 0 0 -3.668516,7.43346 14.174107,7.6955517 0 0 0 10.022593,5.4416 14.174107,7.6955517 0 0 0 13.691078,-1.99186 14.174107,7.6955517 0 0 0 13.69127,1.99175 14.174107,7.6955517 0 0 0 6.58774,-2.1217 z"
         id="path5213"
         inkscape:connector-curvature="0" />
      <path
         inkscape:connector-curvature="0"
         id="path5215"
         d="m 93.251904,164.77775 a 12.756696,12.756696 0 0 0 -3.091348,5.50326 12.756696,12.756696 0 0 0 3.301823,12.32198 l 18.040641,18.04064 18.04065,-18.04064 a 12.756696,12.756696 0 0 0 3.30166,-12.32215 12.756696,12.756696 0 0 0 -9.02032,-9.02033 12.756696,12.756696 0 0 0 -12.32199,3.30183 12.756696,12.756696 0 0 0 -12.322141,-3.30165 12.756696,12.756696 0 0 0 -5.928975,3.51706 z"
         style="opacity:1;fill:#80808a;fill-opacity:1;stroke:none;stroke-width:0.11924999;stroke-miterlimit:4;stroke-dasharray:none;stroke-dashoffset:0;stroke-opacity:1" />
      <path
         style="opacity:1;fill:#ccccd6;fill-opacity:1;stroke:none;stroke-width:0.107325;stroke-miterlimit:4;stroke-dasharray:none;stroke-dashoffset:0;stroke-opacity:1"
         d="m 95.077011,166.37345 a 11.481026,11.481026 0 0 0 -2.782213,4.95293 11.481026,11.481026 0 0 0 2.971641,11.08979 l 16.236581,16.23657 16.23658,-16.23657 a 11.481026,11.481026 0 0 0 2.97149,-11.08994 11.481026,11.481026 0 0 0 -8.11828,-8.1183 11.481026,11.481026 0 0 0 -11.08979,2.97165 11.481026,11.481026 0 0 0 -11.08993,-2.97148 11.481026,11.481026 0 0 0 -5.336079,3.16535 z"
         id="path5217"
         inkscape:connector-curvature="0" />
      <path
         inkscape:connector-curvature="0"
         id="path5219"
         d="m 99.299779,213.97258 a 8.5295014,5.8361218 0 0 0 -2.066966,2.51771 8.5295014,5.8361218 0 0 0 2.207695,5.63724 l 12.062502,8.25351 12.06251,-8.25351 a 8.5295014,5.8361218 0 0 0 2.20759,-5.63731 8.5295014,5.8361218 0 0 0 -6.03125,-4.12675 8.5295014,5.8361218 0 0 0 -8.23885,1.51056 8.5295014,5.8361218 0 0 0 -8.23894,-1.51049 8.5295014,5.8361218 0 0 0 -3.964291,1.60904 z"
         style="opacity:1;vector-effect:none;fill:#80808a;fill-opacity:1;stroke:none;stroke-width:0.0877594;stroke-linecap:butt;stroke-linejoin:miter;stroke-miterlimit:4;stroke-dasharray:none;stroke-dashoffset:0;stroke-opacity:1" />
      <path
         inkscape:connector-curvature="0"
         id="path5221"
         d="m 128.70242,145.65411 a 12.756696,4.5284477 0 0 0 3.09134,-1.95359 12.756696,4.5284477 0 0 0 -3.30182,-4.37416 l -18.04064,-6.40417 -18.040659,6.40417 a 12.756696,4.5284477 0 0 0 -3.301656,4.37423 12.756696,4.5284477 0 0 0 9.020316,3.20209 12.756696,4.5284477 0 0 0 12.321999,-1.17209 12.756696,4.5284477 0 0 0 12.32213,1.17205 12.756696,4.5284477 0 0 0 5.92899,-1.24853 z"
         style="opacity:1;vector-effect:none;fill:#80808a;fill-opacity:1;stroke:none;stroke-width:0.08678295;stroke-linecap:butt;stroke-linejoin:miter;stroke-miterlimit:4;stroke-dasharray:none;stroke-dashoffset:0;stroke-opacity:1" />
    </g>
    <g
       transform="translate(172.38041,-93.544335)"
       id="g5241">
      <path
         style="opacity:1;fill:#ff8080;fill-opacity:1;stroke:none;stroke-width:0.26499999;stroke-miterlimit:4;stroke-dasharray:none;stroke-dashoffset:0;stroke-opacity:1"
         d="m 70.944987,151.6911 a 28.348215,28.348215 0 0 0 -6.869662,12.22946 28.348215,28.348215 0 0 0 7.337384,27.38218 l 40.090321,40.09032 40.09032,-40.09032 a 28.348215,28.348215 0 0 0 7.33702,-27.38255 28.348215,28.348215 0 0 0 -20.04516,-20.04516 28.348215,28.348215 0 0 0 -27.38218,7.33738 28.348215,28.348215 0 0 0 -27.382542,-7.33701 28.348215,28.348215 0 0 0 -13.175501,7.8157 z"
         id="path5225"
         inkscape:connector-curvature="0" />
      <path
         style="opacity:1;fill:#b3b3b3;fill-opacity:1;stroke:none;stroke-width:0.13249999;stroke-miterlimit:4;stroke-dasharray:none;stroke-dashoffset:0;stroke-opacity:1"
         d="m 91.224007,163.00475 a 14.174107,14.174107 0 0 0 -3.434831,6.11473 14.174107,14.174107 0 0 0 3.668692,13.69109 l 20.045162,20.04516 20.04516,-20.04516 a 14.174107,14.174107 0 0 0 3.66851,-13.69128 14.174107,14.174107 0 0 0 -10.02258,-10.02258 14.174107,14.174107 0 0 0 -13.69109,3.66869 14.174107,14.174107 0 0 0 -13.691273,-3.6685 14.174107,14.174107 0 0 0 -6.58775,3.90785 z"
         id="path5227"
         inkscape:connector-curvature="0" />
      <path
         style="opacity:1;fill:#b3b3b3;fill-opacity:1;stroke:none;stroke-width:0.08962082;stroke-miterlimit:4;stroke-dasharray:none;stroke-dashoffset:0;stroke-opacity:1"
         d="m 91.224011,213.16144 a 14.174107,6.4845798 0 0 0 -3.43483,2.79746 14.174107,6.4845798 0 0 0 3.66869,6.2636 l 20.045159,9.17056 20.04517,-9.17056 a 14.174107,6.4845798 0 0 0 3.66851,-6.26368 14.174107,6.4845798 0 0 0 -10.02258,-4.58528 14.174107,6.4845798 0 0 0 -13.6911,1.6784 14.174107,6.4845798 0 0 0 -13.691269,-1.67832 14.174107,6.4845798 0 0 0 -6.58775,1.78782 z"
         id="path5229"
         inkscape:connector-curvature="0" />
      <path
         style="opacity:1;fill:#b3b3b3;fill-opacity:1;stroke:none;stroke-width:0.09763103;stroke-miterlimit:4;stroke-dasharray:none;stroke-dashoffset:0;stroke-opacity:1"
         d="m 91.224008,136.64408 a 14.174107,7.6955517 0 0 0 -3.434831,3.31989 14.174107,7.6955517 0 0 0 3.668692,7.43336 l 20.045161,10.88313 20.04516,-10.88313 a 14.174107,7.6955517 0 0 0 3.66851,-7.43346 14.174107,7.6955517 0 0 0 -10.02258,-5.44159 14.174107,7.6955517 0 0 0 -13.69109,1.99185 14.174107,7.6955517 0 0 0 -13.691271,-1.99175 14.174107,7.6955517 0 0 0 -6.587751,2.1217 z"
         id="path5231"
         inkscape:connector-curvature="0" />
      <path
         inkscape:connector-curvature="0"
         id="path5233"
         d="m 93.251904,164.77775 a 12.756696,12.756696 0 0 0 -3.091348,5.50326 12.756696,12.756696 0 0 0 3.301823,12.32198 l 18.040641,18.04064 18.04065,-18.04064 a 12.756696,12.756696 0 0 0 3.30166,-12.32215 12.756696,12.756696 0 0 0 -9.02032,-9.02033 12.756696,12.756696 0 0 0 -12.32199,3.30183 12.756696,12.756696 0 0 0 -12.322141,-3.30165 12.756696,12.756696 0 0 0 -5.928975,3.51706 z"
         style="opacity:1;fill:#808080;fill-opacity:1;stroke:none;stroke-width:0.11924999;stroke-miterlimit:4;stroke-dasharray:none;stroke-dashoffset:0;stroke-opacity:1" />
      <path
         style="opacity:1;fill:#cccccc;fill-opacity:1;stroke:none;stroke-width:0.107325;stroke-miterlimit:4;stroke-dasharray:none;stroke-dashoffset:0;stroke-opacity:1"
         d="m 95.077011,166.37345 a 11.481026,11.481026 0 0 0 -2.782213,4.95293 11.481026,11.481026 0 0 0 2.971641,11.08979 l 16.236581,16.23657 16.23658,-16.23657 a 11.481026,11.481026 0 0 0 2.97149,-11.08994 11.481026,11.481026 0 0 0 -8.11828,-8.1183 11.481026,11.481026 0 0 0 -11.08979,2.97165 11.481026,11.481026 0 0 0 -11.08993,-2.97148 11.481026,11.481026 0 0 0 -5.336079,3.16535 z"
         id="path5235"
         inkscape:connector-curvature="0" />
      <path
         inkscape:connector-curvature="0"
         id="path5237"
         d="m 99.299779,213.97258 a 8.5295014,5.8361218 0 0 0 -2.066966,2.51771 8.5295014,5.8361218 0 0 0 2.207695,5.63724 l 12.062502,8.25351 12.06251,-8.25351 a 8.5295014,5.8361218 0 0 0 2.20759,-5.63731 8.5295014,5.8361218 0 0 0 -6.03125,-4.12675 8.5295014,5.8361218 0 0 0 -8.23885,1.51056 8.5295014,5.8361218 0 0 0 -8.23894,-1.51049 8.5295014,5.8361218 0 0 0 -3.964291,1.60904 z"
         style="opacity:1;vector-effect:none;fill:#808080;fill-opacity:1;stroke:none;stroke-width:0.0877594;stroke-linecap:butt;stroke-linejoin:miter;stroke-miterlimit:4;stroke-dasharray:none;stroke-dashoffset:0;stroke-opacity:1" />
      <path
         inkscape:connector-curvature="0"
         id="path5239"
         d="m 93.251905,136.86397 a 12.756696,4.5284477 0 0 0 -3.091348,1.95358 12.756696,4.5284477 0 0 0 3.301823,4.37416 l 18.04064,6.40418 18.04065,-6.40418 a 12.756696,4.5284477 0 0 0 3.30166,-4.37421 12.756696,4.5284477 0 0 0 -9.02032,-3.20211 12.756696,4.5284477 0 0 0 -12.32199,1.1721 12.756696,4.5284477 0 0 0 -12.322139,-1.17204 12.756696,4.5284477 0 0 0 -5.928976,1.24852 z"
         style="opacity:1;vector-effect:none;fill:#808080;fill-opacity:1;stroke:none;stroke-width:0.08678295;stroke-linecap:butt;stroke-linejoin:miter;stroke-miterlimit:4;stroke-dasharray:none;stroke-dashoffset:0;stroke-opacity:1" />
    </g>
    <g
       id="g5259"
       transform="translate(295.3244,-96.484299)">
      <path
         inkscape:connector-curvature="0"
         id="path5243"
         d="m 70.944987,151.6911 a 28.348215,28.348215 0 0 0 -6.869662,12.22946 28.348215,28.348215 0 0 0 7.337384,27.38218 l 40.090321,40.09032 40.09032,-40.09032 a 28.348215,28.348215 0 0 0 7.33702,-27.38255 28.348215,28.348215 0 0 0 -20.04516,-20.04516 28.348215,28.348215 0 0 0 -27.38218,7.33738 28.348215,28.348215 0 0 0 -27.382542,-7.33701 28.348215,28.348215 0 0 0 -13.175501,7.8157 z"
         style="opacity:1;fill:#ff8080;fill-opacity:1;stroke:none;stroke-width:0.26499999;stroke-miterlimit:4;stroke-dasharray:none;stroke-dashoffset:0;stroke-opacity:1" />
      <path
         inkscape:connector-curvature="0"
         id="path5245"
         d="m 91.224007,163.00475 a 14.174107,14.174107 0 0 0 -3.434831,6.11473 14.174107,14.174107 0 0 0 3.668692,13.69109 l 20.045162,20.04516 20.04516,-20.04516 a 14.174107,14.174107 0 0 0 3.66851,-13.69128 14.174107,14.174107 0 0 0 -10.02258,-10.02258 14.174107,14.174107 0 0 0 -13.69109,3.66869 14.174107,14.174107 0 0 0 -13.691273,-3.6685 14.174107,14.174107 0 0 0 -6.58775,3.90785 z"
         style="opacity:1;fill:#b3b3b3;fill-opacity:1;stroke:none;stroke-width:0.13249999;stroke-miterlimit:4;stroke-dasharray:none;stroke-dashoffset:0;stroke-opacity:1" />
      <path
         inkscape:connector-curvature="0"
         id="path5247"
         d="m 91.224011,213.16144 a 14.174107,6.4845798 0 0 0 -3.43483,2.79746 14.174107,6.4845798 0 0 0 3.66869,6.2636 l 20.045159,9.17056 20.04517,-9.17056 a 14.174107,6.4845798 0 0 0 3.66851,-6.26368 14.174107,6.4845798 0 0 0 -10.02258,-4.58528 14.174107,6.4845798 0 0 0 -13.6911,1.6784 14.174107,6.4845798 0 0 0 -13.691269,-1.67832 14.174107,6.4845798 0 0 0 -6.58775,1.78782 z"
         style="opacity:1;fill:#b3b3b3;fill-opacity:1;stroke:none;stroke-width:0.08962082;stroke-miterlimit:4;stroke-dasharray:none;stroke-dashoffset:0;stroke-opacity:1" />
      <path
         inkscape:connector-curvature="0"
         id="path5249"
         d="m 129.9948,151.58188 a 14.174107,7.6955517 0 0 0 3.43485,-3.31987 14.174107,7.6955517 0 0 0 -3.66869,-7.43336 L 109.7158,129.94551 89.670645,140.82864 a 14.174107,7.6955517 0 0 0 -3.668516,7.43346 14.174107,7.6955517 0 0 0 10.022593,5.4416 14.174107,7.6955517 0 0 0 13.691078,-1.99186 14.174107,7.6955517 0 0 0 13.69127,1.99175 14.174107,7.6955517 0 0 0 6.58774,-2.1217 z"
         style="opacity:1;fill:#b3b3b3;fill-opacity:1;stroke:none;stroke-width:0.09763103;stroke-miterlimit:4;stroke-dasharray:none;stroke-dashoffset:0;stroke-opacity:1" />
      <path
         style="opacity:1;fill:#808080;fill-opacity:1;stroke:none;stroke-width:0.11924999;stroke-miterlimit:4;stroke-dasharray:none;stroke-dashoffset:0;stroke-opacity:1"
         d="m 93.251904,164.77775 a 12.756696,12.756696 0 0 0 -3.091348,5.50326 12.756696,12.756696 0 0 0 3.301823,12.32198 l 18.040641,18.04064 18.04065,-18.04064 a 12.756696,12.756696 0 0 0 3.30166,-12.32215 12.756696,12.756696 0 0 0 -9.02032,-9.02033 12.756696,12.756696 0 0 0 -12.32199,3.30183 12.756696,12.756696 0 0 0 -12.322141,-3.30165 12.756696,12.756696 0 0 0 -5.928975,3.51706 z"
         id="path5251"
         inkscape:connector-curvature="0" />
      <path
         inkscape:connector-curvature="0"
         id="path5253"
         d="m 95.077011,166.37345 a 11.481026,11.481026 0 0 0 -2.782213,4.95293 11.481026,11.481026 0 0 0 2.971641,11.08979 l 16.236581,16.23657 16.23658,-16.23657 a 11.481026,11.481026 0 0 0 2.97149,-11.08994 11.481026,11.481026 0 0 0 -8.11828,-8.1183 11.481026,11.481026 0 0 0 -11.08979,2.97165 11.481026,11.481026 0 0 0 -11.08993,-2.97148 11.481026,11.481026 0 0 0 -5.336079,3.16535 z"
         style="opacity:1;fill:#cccccc;fill-opacity:1;stroke:none;stroke-width:0.107325;stroke-miterlimit:4;stroke-dasharray:none;stroke-dashoffset:0;stroke-opacity:1" />
      <path
         style="opacity:1;vector-effect:none;fill:#808080;fill-opacity:1;stroke:none;stroke-width:0.0877594;stroke-linecap:butt;stroke-linejoin:miter;stroke-miterlimit:4;stroke-dasharray:none;stroke-dashoffset:0;stroke-opacity:1"
         d="m 99.299779,213.97258 a 8.5295014,5.8361218 0 0 0 -2.066966,2.51771 8.5295014,5.8361218 0 0 0 2.207695,5.63724 l 12.062502,8.25351 12.06251,-8.25351 a 8.5295014,5.8361218 0 0 0 2.20759,-5.63731 8.5295014,5.8361218 0 0 0 -6.03125,-4.12675 8.5295014,5.8361218 0 0 0 -8.23885,1.51056 8.5295014,5.8361218 0 0 0 -8.23894,-1.51049 8.5295014,5.8361218 0 0 0 -3.964291,1.60904 z"
         id="path5255"
         inkscape:connector-curvature="0" />
      <path
         style="opacity:1;vector-effect:none;fill:#808080;fill-opacity:1;stroke:none;stroke-width:0.08678295;stroke-linecap:butt;stroke-linejoin:miter;stroke-miterlimit:4;stroke-dasharray:none;stroke-dashoffset:0;stroke-opacity:1"
         d="m 128.70242,145.65411 a 12.756696,4.5284477 0 0 0 3.09134,-1.95359 12.756696,4.5284477 0 0 0 -3.30182,-4.37416 l -18.04064,-6.40417 -18.040659,6.40417 a 12.756696,4.5284477 0 0 0 -3.301656,4.37423 12.756696,4.5284477 0 0 0 9.020316,3.20209 12.756696,4.5284477 0 0 0 12.321999,-1.17209 12.756696,4.5284477 0 0 0 12.32213,1.17205 12.756696,4.5284477 0 0 0 5.92899,-1.24853 z"
         id="path5257"
         inkscape:connector-curvature="0" />
    </g>
  </g>
</svg>
